<svg xmlns="http://www.w3.org/2000/svg" viewBox="0 0 700 980" width="700" height="980">
    <defs>
      <style>
        .t{font-family:Arial,Helvetica,sans-serif; fill:#17324d}
        .h{font-size:34px; font-weight:700}
        .s{font-size:22px; font-weight:700}
        .m{font-size:20px;}
        .sm{font-size:16px; fill:#4b5563}
        .box{fill:#fff;stroke:#d1d5db;stroke-width:2}
        .thin{stroke:#374151;stroke-width:2;fill:none}
        .axis{stroke:#6b7280;stroke-width:2;fill:none;marker-end:url(#arr)}
      </style>
      <marker id="arr" markerWidth="10" markerHeight="10" refX="8" refY="3" orient="auto" markerUnits="strokeWidth">
        <path d="M0,0 L0,6 L9,3 z" fill="#6b7280"/>
      </marker>
    </defs>
    <rect x="0" y="0" width="700" height="980" fill="#fafaf7"/>
    <rect x="18" y="18" width="664" height="944" rx="24" fill="#fffef7" stroke="#dbe4ea" stroke-width="3"/>
    
<text x="350" y="68" text-anchor="middle" class="t h">More Generally</text>
<text x="350" y="108" text-anchor="middle" class="t s">(∑ n)² = ∑ n³</text>
<g transform="translate(55,180)">
  <rect x="0" y="0" width="315" height="315" fill="#f5d5ff" stroke="#c084fc" stroke-width="3"/>
  <rect x="0" y="120" width="180" height="120" fill="#8fd3ff" stroke="#60a5fa"/>
  <rect x="0" y="240" width="108" height="72" fill="#c4f0a0" stroke="#84cc16"/>
  <rect x="0" y="312" width="36" height="3" fill="#fca5a5" stroke="#f87171"/>
  <text x="160" y="340" text-anchor="middle" class="t m">The left square has side 1+2+···+k</text>
</g>
<text x="500" y="300" class="t h">=</text>
<g transform="translate(510,180)">
  <rect x="0" y="235" width="100" height="80" fill="#f5d5ff" stroke="#111827"/><rect x="0" y="125" width="80" height="80" fill="#8fd3ff" stroke="#111827"/><rect x="0" y="35" width="60" height="60" fill="#c4f0a0" stroke="#111827"/><rect x="0" y="0" width="24" height="24" fill="#fca5a5" stroke="#111827"/>
  <rect x="130" y="210" width="100" height="105" fill="#f5d5ff" stroke="#111827"/><rect x="130" y="100" width="80" height="80" fill="#8fd3ff" stroke="#111827"/><rect x="130" y="10" width="60" height="60" fill="#c4f0a0" stroke="#111827"/>
</g>

    </svg>