<svg xmlns="http://www.w3.org/2000/svg" viewBox="0 0 700 980" width="700" height="980">
    <defs>
      <style>
        .t{font-family:Arial,Helvetica,sans-serif; fill:#17324d}
        .h{font-size:34px; font-weight:700}
        .s{font-size:22px; font-weight:700}
        .m{font-size:20px;}
        .sm{font-size:16px; fill:#4b5563}
        .box{fill:#fff;stroke:#d1d5db;stroke-width:2}
        .thin{stroke:#374151;stroke-width:2;fill:none}
        .axis{stroke:#6b7280;stroke-width:2;fill:none;marker-end:url(#arr)}
      </style>
      <marker id="arr" markerWidth="10" markerHeight="10" refX="8" refY="3" orient="auto" markerUnits="strokeWidth">
        <path d="M0,0 L0,6 L9,3 z" fill="#6b7280"/>
      </marker>
    </defs>
    <rect x="0" y="0" width="700" height="980" fill="#fafaf7"/>
    <rect x="18" y="18" width="664" height="944" rx="24" fill="#fffef7" stroke="#dbe4ea" stroke-width="3"/>
    
<text x="350" y="68" text-anchor="middle" class="t h">Why the Area of a Circle is πr²</text>
<g transform="translate(180,120)">
  <circle cx="170" cy="140" r="110" fill="#fff" stroke="#111827" stroke-width="3"/>
  <g stroke="#111827" stroke-width="2">
    <path d="M170 140 L170 30"/><path d="M170 140 L222 43"/><path d="M170 140 L262 77"/><path d="M170 140 L278 133"/>
    <path d="M170 140 L270 186"/><path d="M170 140 L234 235"/><path d="M170 140 L183 249"/><path d="M170 140 L121 238"/>
    <path d="M170 140 L74 205"/><path d="M170 140 L61 144"/><path d="M170 140 L74 83"/><path d="M170 140 L117 44"/>
  </g>
  <path d="M170 140 L170 30 A110 110 0 0 1 222 43 Z" fill="#f7dc6f"/><path d="M170 140 L222 43 A110 110 0 0 1 262 77 Z" fill="#f6c85f"/><path d="M170 140 L262 77 A110 110 0 0 1 278 133 Z" fill="#f39c34"/><path d="M170 140 L278 133 A110 110 0 0 1 270 186 Z" fill="#f05c4d"/><path d="M170 140 L270 186 A110 110 0 0 1 234 235 Z" fill="#e74bc6"/><path d="M170 140 L234 235 A110 110 0 0 1 183 249 Z" fill="#7e57c2"/><path d="M170 140 L183 249 A110 110 0 0 1 121 238 Z" fill="#4aa3df"/><path d="M170 140 L121 238 A110 110 0 0 1 74 205 Z" fill="#38bdf8"/><path d="M170 140 L74 205 A110 110 0 0 1 61 144 Z" fill="#14b8a6"/><path d="M170 140 L61 144 A110 110 0 0 1 74 83 Z" fill="#4caf50"/><path d="M170 140 L74 83 A110 110 0 0 1 117 44 Z" fill="#9ccc65"/><path d="M170 140 L117 44 A110 110 0 0 1 170 30 Z" fill="#cddc39"/>
  <text x="230" y="55" class="t m">r</text>
</g>
<g transform="translate(90,520)">
  <rect x="0" y="0" width="520" height="220" rx="18" fill="#fff" stroke="#cbd5e1"/>
  <polygon points="40,140 80,50 120,140" fill="#f7dc6f" stroke="#111827"/>
  <polygon points="80,140 120,50 160,140" fill="#f6c85f" stroke="#111827"/>
  <polygon points="120,140 160,50 200,140" fill="#f39c34" stroke="#111827"/>
  <polygon points="160,140 200,50 240,140" fill="#f05c4d" stroke="#111827"/>
  <polygon points="200,140 240,50 280,140" fill="#e74bc6" stroke="#111827"/>
  <polygon points="240,140 280,50 320,140" fill="#7e57c2" stroke="#111827"/>
  <polygon points="280,140 320,50 360,140" fill="#4aa3df" stroke="#111827"/>
  <polygon points="320,140 360,50 400,140" fill="#38bdf8" stroke="#111827"/>
  <polygon points="360,140 400,50 440,140" fill="#14b8a6" stroke="#111827"/>
  <polygon points="400,140 440,50 480,140" fill="#9ccc65" stroke="#111827"/>
  <line x1="40" y1="175" x2="500" y2="175" stroke="#111827" stroke-width="2" marker-end="url(#arr)" marker-start="url(#arr)"/>
  <text x="270" y="204" text-anchor="middle" class="t m">width ≈ πr</text>
  <line x1="500" y1="50" x2="500" y2="140" stroke="#111827" stroke-width="2" marker-end="url(#arr)" marker-start="url(#arr)"/>
  <text x="518" y="102" class="t m">height = r</text>
</g>
<text x="350" y="885" text-anchor="middle" class="t s">Area ≈ (πr) × r = πr²</text>

    </svg>