<svg xmlns="http://www.w3.org/2000/svg" viewBox="0 0 700 980" width="700" height="980">
    <defs>
      <style>
        .t{font-family:Arial,Helvetica,sans-serif; fill:#17324d}
        .h{font-size:34px; font-weight:700}
        .s{font-size:22px; font-weight:700}
        .m{font-size:20px;}
        .sm{font-size:16px; fill:#4b5563}
        .box{fill:#fff;stroke:#d1d5db;stroke-width:2}
        .thin{stroke:#374151;stroke-width:2;fill:none}
        .axis{stroke:#6b7280;stroke-width:2;fill:none;marker-end:url(#arr)}
      </style>
      <marker id="arr" markerWidth="10" markerHeight="10" refX="8" refY="3" orient="auto" markerUnits="strokeWidth">
        <path d="M0,0 L0,6 L9,3 z" fill="#6b7280"/>
      </marker>
    </defs>
    <rect x="0" y="0" width="700" height="980" fill="#fafaf7"/>
    <rect x="18" y="18" width="664" height="944" rx="24" fill="#fffef7" stroke="#dbe4ea" stroke-width="3"/>
    
<text x="350" y="68" text-anchor="middle" class="t h">Visual Proof of HM ≤ GM ≤ AM ≤ RMS</text>
<g transform="translate(70,170)">
  <circle cx="200" cy="220" r="160" fill="#fff" stroke="#111827" stroke-width="3"/>
  <line x1="40" y1="220" x2="520" y2="220" stroke="#111827" stroke-width="3"/>
  <line x1="200" y1="220" x2="200" y2="50" stroke="#111827" stroke-width="3"/>
  <line x1="200" y1="220" x2="200" y2="380" stroke="#111827" stroke-width="3"/>
  <line x1="520" y1="220" x2="270" y2="60" stroke="#111827" stroke-width="3"/>
  <line x1="520" y1="220" x2="270" y2="380" stroke="#111827" stroke-width="3"/>
  <text x="270" y="45" class="t sm">√ab</text><text x="347" y="192" class="t sm">2ab/(a+b)</text><text x="347" y="232" class="t sm">(a+b)/2</text><text x="330" y="362" class="t sm">√((a²+b²)/2)</text>
  <text x="100" y="200" class="t sm">P</text><text x="190" y="235" class="t sm">A</text><text x="310" y="235" class="t sm">Q</text><text x="520" y="235" class="t sm">M</text>
</g>
<text x="350" y="805" text-anchor="middle" class="t s">2ab/(a+b) &lt; √ab &lt; (a+b)/2 &lt; √((a²+b²)/2)</text>

    </svg>