<svg xmlns="http://www.w3.org/2000/svg" viewBox="0 0 960 560"><defs><style>.h{font:700 28px Arial;fill:#12304d}.t{font:18px Arial;fill:#12304d}.s{font:15px Arial;fill:#47627b}.w{stroke:#12304d;stroke-width:3;fill:none}.b{stroke:#2563eb;stroke-width:8}.a{stroke:#f59e0b;stroke-width:4;fill:none}.e{stroke:#e11d48;stroke-width:4}</style></defs><rect width="960" height="560" fill="#fff"/><text x="38" y="48" class="h">Potentiometer null method</text>
<line x1="100" y1="220" x2="850" y2="220" class="b"/><g stroke="#12304d" stroke-width="2"> <line x1="100" y1="200" x2="100" y2="240"/><line x1="250" y1="200" x2="250" y2="240"/><line x1="400" y1="200" x2="400" y2="240"/><line x1="550" y1="200" x2="550" y2="240"/><line x1="700" y1="200" x2="700" y2="240"/><line x1="850" y1="200" x2="850" y2="240"/></g>
<circle cx="585" cy="220" r="14" fill="#f59e0b"/><line x1="585" y1="220" x2="585" y2="105" class="a"/><circle cx="585" cy="85" r="26" fill="#fff" stroke="#12304d" stroke-width="3"/><text x="577" y="92" class="t">G</text><path d="M585 59V35H350" class="w"/><line x1="350" y1="18" x2="350" y2="52" class="e"/><line x1="370" y1="25" x2="370" y2="45" stroke="#e11d48" stroke-width="3"/><text x="300" y="20" class="s">test cell E</text><text x="530" y="275" class="s">balance length l</text><text x="92" y="275" class="s">A</text><text x="842" y="275" class="s">B</text>
<path d="M100 220V390H850V220" class="w"/><line x1="215" y1="365" x2="215" y2="415" class="e"/><line x1="235" y1="375" x2="235" y2="405" stroke="#e11d48" stroke-width="3"/><path d="M400 390h25l12-18 22 36 22-36 22 36 12-18h25" class="w"/><text x="170" y="450" class="s">driver cell</text><text x="405" y="450" class="s">rheostat controls wire current</text>
<g transform="translate(130 485)"><rect width="700" height="55" rx="14" fill="#f5f9fc" stroke="#c5d5e3"/><text x="20" y="35" class="s">At null: no current is drawn from the test cell and E = kl. For two cells, E₁/E₂ = l₁/l₂.</text></g></svg>
