<svg xmlns="http://www.w3.org/2000/svg" viewBox="0 0 1000 620" role="img" aria-labelledby="title desc">
  <title id="title">Steam engine cutaway diagram</title>
  <desc id="desc">Simplified labeled cutaway diagram showing boiler, steam pipe, cylinder, piston, connecting rod, flywheel, and condenser.</desc>
  <rect width="1000" height="620" rx="28" fill="#f8fafc"/>
  <rect x="42" y="430" width="910" height="28" rx="14" fill="#334155"/>
  <rect x="88" y="255" width="270" height="170" rx="28" fill="#0f766e" stroke="#0f172a" stroke-width="8"/>
  <path d="M105 370 C150 335 200 410 245 360 C284 320 312 360 342 336 L342 420 L105 420 Z" fill="#f97316" opacity="0.88"/>
  <path d="M160 220 C135 160 180 140 168 82 C230 134 212 178 240 220" fill="#cbd5e1" opacity="0.85"/>
  <path d="M356 292 H476 V165 H628" fill="none" stroke="#0ea5e9" stroke-width="18" stroke-linecap="round" stroke-linejoin="round"/>
  <rect x="622" y="110" width="165" height="170" rx="16" fill="#e2e8f0" stroke="#0f172a" stroke-width="8"/>
  <rect x="650" y="135" width="78" height="120" rx="8" fill="#38bdf8" opacity="0.45"/>
  <rect x="724" y="143" width="30" height="104" rx="7" fill="#0f172a"/>
  <path d="M754 194 L845 315" stroke="#0f172a" stroke-width="12" stroke-linecap="round"/>
  <circle cx="872" cy="352" r="72" fill="#0f172a" stroke="#64748b" stroke-width="18"/>
  <circle cx="872" cy="352" r="18" fill="#f8fafc"/>
  <rect x="602" y="340" width="165" height="92" rx="18" fill="#bae6fd" stroke="#0f172a" stroke-width="7"/>
  <path d="M688 280 V340" stroke="#64748b" stroke-width="10" stroke-dasharray="12 10"/>
  <g font-family="Arial, sans-serif" font-size="24" fill="#0f172a" font-weight="700">
    <text x="130" y="503">Boiler</text>
    <text x="388" y="255">Steam pipe</text>
    <text x="618" y="82">Cylinder</text>
    <text x="760" y="190">Piston</text>
    <text x="770" y="292">Rod</text>
    <text x="816" y="470">Flywheel</text>
    <text x="590" y="470">Condenser</text>
  </g>
  <g stroke="#0f172a" stroke-width="3" marker-end="url(#arrow)">
    <defs><marker id="arrow" viewBox="0 0 10 10" refX="8" refY="5" markerWidth="6" markerHeight="6" orient="auto-start-reverse"><path d="M 0 0 L 10 5 L 0 10 z" fill="#0f172a"/></marker></defs>
    <path d="M170 482 L190 415"/><path d="M430 246 L462 205"/><path d="M668 88 L676 124"/><path d="M780 195 L748 195"/><path d="M795 283 L775 225"/><path d="M860 450 L872 386"/><path d="M640 448 L660 426"/>
  </g>
</svg>
